<!--?xml version="1.0" encoding="utf-8"?-->
<!-- Generator: Adobe Illustrator 18.1.1, SVG Export Plug-In . SVG Version: 6.00 Build 0)  -->

<svg version="1.1" id="_x32_" xmlns="http://www.w3.org/2000/svg" xmlns:xlink="http://www.w3.org/1999/xlink" x="0px" y="0px" viewBox="0 0 512 512" style="enable-background:new 0 0 512 512;" xml:space="preserve">
<style type="text/css">
	.st0{fill:#4B4B4B;}
</style><style class="darkreader darkreader--sync" media="screen"></style>
<g>
	<path class="st0" d="M248.752,186.185c-23.374-5.382-42.545,15.348-38.568,36.568c-13.988-16.441-42.162-14.59-52.676,6.969
		c-10.06,20.659,3.509,45.742,29.231,58.759c23.772,12.038,55.476,19.432,67.727,29.23l1.141,0.234l0.546-1.042
		c0.1-15.682,14.286-44.984,19.88-71.032C282.095,217.684,271.134,191.353,248.752,186.185z" style="fill: rgb(255, 255, 255); --darkreader-inline-fill: #dcdad7;" data-darkreader-inline-fill=""></path>
	<path class="st0" d="M96.913,133.607c-10.599-2.425-19.284,6.962-17.483,16.582c-6.331-7.451-19.092-6.607-23.871,3.155
		c-4.552,9.352,1.588,20.716,13.25,26.614c10.769,5.473,25.133,8.813,30.684,13.244l0.51,0.114l0.256-0.482
		c0.043-7.097,6.48-20.362,9.011-32.187C112.013,147.879,107.044,135.969,96.913,133.607z" style="fill: rgb(255, 255, 255); --darkreader-inline-fill: #dcdad7;" data-darkreader-inline-fill=""></path>
	<path class="st0" d="M383.043,330.359c-10.591-2.425-19.276,6.962-17.476,16.576c-6.324-7.451-19.092-6.607-23.864,3.162
		c-4.551,9.352,1.589,20.716,13.236,26.614c10.784,5.466,25.14,8.813,30.691,13.236l0.518,0.114l0.255-0.476
		c0.043-7.104,6.473-20.368,9.011-32.187C398.159,344.624,393.189,332.713,383.043,330.359z" style="fill: rgb(255, 255, 255); --darkreader-inline-fill: #dcdad7;" data-darkreader-inline-fill=""></path>
	<path class="st0" d="M473.472,40.656l-33.761-2.545c-7.26-13.066-21.779-21.269-37.532-19.674l-34.916,3.488
		c-8.422-15.391-26.572-23.524-44.14-18.589l-38.263,10.819C273.828,0.648,254.735-4.066,238.323,3.846L121.372,60.251
		l-48.21,23.233l-48.493,23.382c-19.092,9.216-27.154,32.229-17.93,51.322l160.077,331.994c9.294,19.163,32.236,27.224,51.4,18.001
		l61.489-29.692l31.946-3.19l128.79,9.578c21.198,1.595,39.638-14.3,41.162-35.427L508.97,81.888
		C510.565,60.69,494.67,42.25,473.472,40.656z M403.994,37.238c10.818-1.084,20.404,6.757,21.488,17.498l0.15,1.234l26.423,263.097
		L376.84,52.339l-3.41-12.052L403.994,37.238z M304.391,28.312l0.652-0.22l23.162-6.529c5.806-1.602,11.755-0.44,16.335,2.679
		c2.68,1.815,4.934,4.289,6.459,7.26c0.582,1.092,1.014,2.325,1.375,3.559l2.035,7.189l2.396,8.635l74.774,265.132L302.137,47.475
		l-0.362-0.723l-7.55-15.612L304.391,28.312z M285.951,454.534l-11.542,5.516l-1.454,0.73l-20.978,10.088l-27.302,13.215
		l-14.661,7.041c-9.727,4.714-21.418,0.652-26.14-9.075l-3.34-6.898l-11.974-24.899l-14.016-29.039L23.727,149.984
		c-4.644-9.727-0.582-21.418,9.146-26.132l33.98-16.412l20.177-9.649l41.021-19.823l3.701-1.815l68.536-33.031l11.471-5.516
		l14.229-6.898l15.313-7.33l5.232-2.545c5.226-2.468,10.961-2.468,15.966-0.362c2.688,1.092,5.154,2.758,7.118,5.005
		c1.234,1.312,2.248,2.836,3.049,4.502l0.652,1.383l2.397,5.005l4.282,8.792l2.105,4.353l150.712,312.462
		c4.65,9.727,0.582,21.418-9.146,26.132L285.951,454.534z M431.87,405.091c9.075-4.353,15.683-11.832,19.093-20.538l1.453,5.296
		c2.907,10.378-3.19,21.198-13.576,24.175l-61.269,17.277L431.87,405.091z M441.817,466.076l-22.141-1.666l27.005-2.687
		c4.431-0.44,8.571-1.603,12.343-3.418C455.103,463.46,448.786,466.587,441.817,466.076z M444.795,442.914l-60.545,6.105
		l59.744-16.846c7.338-2.105,13.577-6.168,18.299-11.47l0.07,0.801C463.454,432.244,455.613,441.829,444.795,442.914z
		 M471.799,326.758L444.723,57.422l27.366,2.035c10.748,0.794,18.88,10.238,18.078,20.978L471.799,326.758z" style="fill: rgb(255, 255, 255); --darkreader-inline-fill: #dcdad7;" data-darkreader-inline-fill=""></path>
</g>
</svg>
